<?xml version="1.0" encoding="UTF-8"?>
<!DOCTYPE svg PUBLIC "-//W3C//DTD SVG 1.1//EN" "http://www.w3.org/Graphics/SVG/1.1/DTD/svg11.dtd">
<svg xmlns="http://www.w3.org/2000/svg" version="1.1" width="744px" height="335px" style="shape-rendering:geometricPrecision; text-rendering:geometricPrecision; image-rendering:optimizeQuality; fill-rule:evenodd; clip-rule:evenodd" xmlns:xlink="http://www.w3.org/1999/xlink">
<g><path style="opacity:0.999" fill="#fbfbfa" d="M 432.5,122.5 C 455.167,122.5 477.833,122.5 500.5,122.5C 500.5,154.5 500.5,186.5 500.5,218.5C 477.833,218.5 455.167,218.5 432.5,218.5C 432.5,186.5 432.5,154.5 432.5,122.5 Z M 493.5,133.5 C 493.833,133.5 494.167,133.5 494.5,133.5C 494.667,154.169 494.5,174.836 494,195.5C 491.931,194.736 489.764,194.236 487.5,194C 484.964,191.295 482.297,188.795 479.5,186.5C 479.5,185.167 478.833,184.5 477.5,184.5C 475.57,180.9 472.903,177.9 469.5,175.5C 467.167,172.5 464.5,169.833 461.5,167.5C 459.906,164.236 457.573,161.569 454.5,159.5C 454.167,159.5 453.833,159.5 453.5,159.5C 453.5,158.5 453.5,157.5 453.5,156.5C 452.5,156.5 451.5,156.5 450.5,156.5C 449.563,169.532 449.396,182.532 450,195.5C 446.557,194.633 443.224,194.299 440,194.5C 439.5,174.503 439.333,154.503 439.5,134.5C 441.5,134.5 443.5,134.5 445.5,134.5C 446.167,137.167 447.833,138.833 450.5,139.5C 451.419,142.089 453.086,144.089 455.5,145.5C 457.5,148.167 459.833,150.5 462.5,152.5C 463.189,155.189 464.856,156.856 467.5,157.5C 468.419,160.089 470.086,162.089 472.5,163.5C 475.146,166.812 478.146,169.812 481.5,172.5C 482.496,166.537 482.829,160.537 482.5,154.5C 483.206,148.032 483.206,141.532 482.5,135C 486.356,134.823 490.023,134.323 493.5,133.5 Z"/></g>
<g><path style="opacity:0.196" fill="#2c2b2b" d="M 263.5,128.5 C 256.339,127.997 253.339,131.33 254.5,138.5C 253.624,138.631 252.957,138.298 252.5,137.5C 252.306,129.689 255.973,126.689 263.5,128.5 Z"/></g>
<g><path style="opacity:0.999" fill="#f1f2f0" d="M 263.5,128.5 C 266.193,131.581 267.193,135.247 266.5,139.5C 266.167,140.5 265.5,141.167 264.5,141.5C 261.833,141.5 259.167,141.5 256.5,141.5C 256.068,140.29 255.401,139.29 254.5,138.5C 253.339,131.33 256.339,127.997 263.5,128.5 Z"/></g>
<g><path style="opacity:0.999" fill="#efefef" d="M 396.5,129.5 C 400.5,129.5 404.5,129.5 408.5,129.5C 408.5,135.833 408.5,142.167 408.5,148.5C 412.833,148.5 417.167,148.5 421.5,148.5C 421.5,151.5 421.5,154.5 421.5,157.5C 416.968,157.182 412.634,157.515 408.5,158.5C 409.466,166.08 409.799,173.747 409.5,181.5C 409.297,183.39 409.963,184.89 411.5,186C 414.817,186.498 418.15,186.665 421.5,186.5C 421.736,189.609 421.403,192.609 420.5,195.5C 414.822,198.086 409.156,198.086 403.5,195.5C 400.041,192.252 397.875,188.252 397,183.5C 396.5,174.84 396.334,166.173 396.5,157.5C 394.167,157.5 391.833,157.5 389.5,157.5C 389.5,154.5 389.5,151.5 389.5,148.5C 391.833,148.5 394.167,148.5 396.5,148.5C 396.5,142.167 396.5,135.833 396.5,129.5 Z"/></g>
<g><path style="opacity:0.999" fill="#f3f3f3" d="M 646.5,129.5 C 646.5,135.833 646.5,142.167 646.5,148.5C 650.833,148.5 655.167,148.5 659.5,148.5C 659.5,151.5 659.5,154.5 659.5,157.5C 655.167,157.5 650.833,157.5 646.5,157.5C 646.174,165.684 646.508,173.684 647.5,181.5C 647.297,183.39 647.963,184.89 649.5,186C 652.817,186.498 656.15,186.665 659.5,186.5C 659.5,189.5 659.5,192.5 659.5,195.5C 653.49,198.095 647.49,198.095 641.5,195.5C 638.754,192.762 636.42,189.762 634.5,186.5C 634.5,176.833 634.5,167.167 634.5,157.5C 632.167,157.5 629.833,157.5 627.5,157.5C 627.5,154.5 627.5,151.5 627.5,148.5C 629.833,148.5 632.167,148.5 634.5,148.5C 634.5,142.167 634.5,135.833 634.5,129.5C 638.5,129.5 642.5,129.5 646.5,129.5 Z"/></g>
<g><path style="opacity:0.024" fill="#1d1d1d" d="M 110.5,133.5 C 114.397,132.385 118.063,133.052 121.5,135.5C 119.139,135.326 116.806,134.993 114.5,134.5C 113.432,133.566 112.099,133.232 110.5,133.5 Z"/></g>
<g><path style="opacity:0.999" fill="#f7f7f7" d="M 114.5,134.5 C 116.806,134.993 119.139,135.326 121.5,135.5C 123.853,136.34 125.853,137.674 127.5,139.5C 127.738,141.404 128.738,142.738 130.5,143.5C 132.123,149.012 132.79,154.678 132.5,160.5C 132.007,162.806 131.674,165.139 131.5,167.5C 129.75,168.659 128.75,170.326 128.5,172.5C 127.738,174.262 126.404,175.262 124.5,175.5C 123.417,175.461 122.417,175.127 121.5,174.5C 120.611,176.007 119.611,177.34 118.5,178.5C 117.081,179.451 115.415,179.784 113.5,179.5C 107.5,179.5 101.5,179.5 95.5,179.5C 95.5,184.833 95.5,190.167 95.5,195.5C 91.8333,195.5 88.1667,195.5 84.5,195.5C 84.5,175.167 84.5,154.833 84.5,134.5C 94.5,134.5 104.5,134.5 114.5,134.5 Z M 96.5,145.5 C 101.809,145.592 106.809,145.592 111.5,145.5C 113.05,146.441 114.716,147.107 116.5,147.5C 119.135,152.344 119.635,157.344 118,162.5C 116.198,163.789 115.031,165.456 114.5,167.5C 114.167,167.5 113.833,167.5 113.5,167.5C 108.203,168.275 102.87,168.608 97.5,168.5C 96.6022,160.876 96.2689,153.209 96.5,145.5 Z"/></g>
<g><path style="opacity:0.706" fill="#5e5d5d" d="M 263.5,128.5 C 266.188,129.024 267.688,130.691 268,133.5C 268.738,135.881 268.238,137.881 266.5,139.5C 267.193,135.247 266.193,131.581 263.5,128.5 Z"/></g>
<g><path style="opacity:0.004" fill="#242424" d="M 445.5,134.5 C 447.5,135.833 449.167,137.5 450.5,139.5C 447.833,138.833 446.167,137.167 445.5,134.5 Z"/></g>
<g><path style="opacity:0.29" fill="#282828" d="M 493.5,133.5 C 490.023,134.323 486.356,134.823 482.5,135C 483.206,141.532 483.206,148.032 482.5,154.5C 482.672,153.508 482.338,152.842 481.5,152.5C 481.5,146.167 481.5,139.833 481.5,133.5C 485.5,133.5 489.5,133.5 493.5,133.5 Z"/></g>
<g><path style="opacity:0.714" fill="#9b9b9b" d="M 110.5,133.5 C 112.099,133.232 113.432,133.566 114.5,134.5C 104.5,134.5 94.5,134.5 84.5,134.5C 84.5,154.833 84.5,175.167 84.5,195.5C 83.5028,175.007 83.1695,154.34 83.5,133.5C 92.3433,133.122 101.343,133.122 110.5,133.5 Z"/></g>
<g><path style="opacity:0.145" fill="#343333" d="M 83.5,133.5 C 83.1695,154.34 83.5028,175.007 84.5,195.5C 88.1667,195.5 91.8333,195.5 95.5,195.5C 95.5,190.167 95.5,184.833 95.5,179.5C 101.5,179.5 107.5,179.5 113.5,179.5C 108.025,180.489 102.358,180.822 96.5,180.5C 96.5,185.833 96.5,191.167 96.5,196.5C 91.7884,196.619 87.2884,196.619 83,196.5C 82.1707,175.329 82.3373,154.329 83.5,133.5 Z"/></g>
<g><path style="opacity:0.729" fill="#686868" d="M 127.5,139.5 C 129.262,140.262 130.262,141.596 130.5,143.5C 128.738,142.738 127.738,141.404 127.5,139.5 Z"/></g>
<g><path style="opacity:0.169" fill="#2f2f2d" d="M 254.5,138.5 C 255.401,139.29 256.068,140.29 256.5,141.5C 254.952,141.179 254.285,140.179 254.5,138.5 Z"/></g>
<g><path style="opacity:0.741" fill="#706e6d" d="M 256.5,141.5 C 259.167,141.5 261.833,141.5 264.5,141.5C 261.833,144.167 259.167,144.167 256.5,141.5 Z"/></g>
<g><path style="opacity:0.055" fill="#212121" d="M 422.5,148.5 C 422.167,148.5 421.833,148.5 421.5,148.5C 417.167,148.5 412.833,148.5 408.5,148.5C 408.5,142.167 408.5,135.833 408.5,129.5C 404.5,129.5 400.5,129.5 396.5,129.5C 396.167,129.5 395.833,129.5 395.5,129.5C 399.524,127.69 403.691,127.023 408,127.5C 409.294,133.997 409.961,140.664 410,147.5C 412.148,147.024 414.648,146.69 417.5,146.5C 419.64,146.556 421.306,147.223 422.5,148.5 Z"/></g>
<g><path style="opacity:0.573" fill="#626162" d="M 450.5,139.5 C 453.107,140.712 454.774,142.712 455.5,145.5C 453.086,144.089 451.419,142.089 450.5,139.5 Z"/></g>
<g><path style="opacity:0.066" fill="#1a1a17" d="M 96.5,145.5 C 96.5,145.167 96.5,144.833 96.5,144.5C 101.695,144.179 106.695,144.513 111.5,145.5C 106.809,145.592 101.809,145.592 96.5,145.5 Z"/></g>
<g><path style="opacity:0.647" fill="#666666" d="M 455.5,145.5 C 458.833,146.833 461.167,149.167 462.5,152.5C 459.833,150.5 457.5,148.167 455.5,145.5 Z"/></g>
<g><path style="opacity:0.031" fill="#222221" d="M 223.5,150.5 C 215.728,147.44 207.728,146.774 199.5,148.5C 199.918,147.778 200.584,147.278 201.5,147C 206.5,146.333 211.5,146.333 216.5,147C 219.174,147.67 221.507,148.837 223.5,150.5 Z"/></g>
<g><path style="opacity:0.039" fill="#242424" d="M 295.5,147.5 C 299.646,146.353 303.98,146.186 308.5,147C 311.684,147.754 314.351,149.254 316.5,151.5C 310.624,148.143 304.291,146.809 297.5,147.5C 296.833,147.5 296.167,147.5 295.5,147.5 Z"/></g>
<g><path style="opacity:0.023" fill="#282828" d="M 358.5,147.5 C 363.159,145.834 367.492,146.5 371.5,149.5C 367.296,148.09 362.963,147.423 358.5,147.5 Z"/></g>
<g><path style="opacity:0.047" fill="#252525" d="M 547.5,149.5 C 540.577,147.416 533.577,147.082 526.5,148.5C 526.918,147.778 527.584,147.278 528.5,147C 533.167,146.333 537.833,146.333 542.5,147C 544.491,147.374 546.158,148.207 547.5,149.5 Z"/></g>
<g><path style="opacity:0.213" fill="#292929" d="M 155.5,148.5 C 151.5,148.5 147.5,148.5 143.5,148.5C 143.167,148.5 142.833,148.5 142.5,148.5C 143.172,147.733 144.005,147.066 145,146.5C 146.794,146.991 148.794,146.991 151,146.5C 152.986,146.569 154.486,147.235 155.5,148.5 Z"/></g>
<g><path style="opacity:0.998" fill="#f8f8f8" d="M 172.5,147.5 C 172.5,151.5 172.5,155.5 172.5,159.5C 169.287,159.19 166.287,159.523 163.5,160.5C 161.368,160.554 160.035,161.554 159.5,163.5C 158.178,163.67 157.011,163.337 156,162.5C 156.019,164.107 156.185,165.774 156.5,167.5C 155.732,168.263 155.232,169.263 155,170.5C 154.5,178.827 154.334,187.16 154.5,195.5C 150.833,195.5 147.167,195.5 143.5,195.5C 143.5,179.833 143.5,164.167 143.5,148.5C 147.5,148.5 151.5,148.5 155.5,148.5C 156.167,149.833 156.833,151.167 157.5,152.5C 161.754,148.847 166.754,147.181 172.5,147.5 Z"/></g>
<g><path style="opacity:0.999" fill="#f7f7f6" d="M 223.5,150.5 C 224.262,152.262 225.596,153.262 227.5,153.5C 228.419,156.089 230.086,158.089 232.5,159.5C 235.657,169.119 234.991,178.452 230.5,187.5C 228.251,188.08 226.585,189.413 225.5,191.5C 222.013,192.262 218.679,193.429 215.5,195C 208.687,195.871 202.021,195.371 195.5,193.5C 194.738,191.738 193.404,190.738 191.5,190.5C 180.637,177.527 180.97,164.861 192.5,152.5C 192.842,151.662 193.508,151.328 194.5,151.5C 195.71,151.068 196.71,150.401 197.5,149.5C 197.842,148.662 198.508,148.328 199.5,148.5C 207.728,146.774 215.728,147.44 223.5,150.5 Z M 214.5,159.5 C 216.808,161.471 219.142,163.471 221.5,165.5C 222.221,168.817 222.388,172.151 222,175.5C 221.011,177.97 219.845,180.303 218.5,182.5C 215.937,183.088 213.604,184.088 211.5,185.5C 211.167,185.5 210.833,185.5 210.5,185.5C 207.205,184.716 203.871,183.716 200.5,182.5C 200.5,181.833 200.167,181.5 199.5,181.5C 198.89,179.566 197.89,177.899 196.5,176.5C 195.444,171.968 196.111,167.635 198.5,163.5C 199.5,163.167 200.167,162.5 200.5,161.5C 204.912,158.895 209.579,158.228 214.5,159.5 Z"/></g>
<g><path style="opacity:0.998" fill="#f7f7f6" d="M 297.5,147.5 C 304.291,146.809 310.624,148.143 316.5,151.5C 317.326,153.264 318.659,154.598 320.5,155.5C 321.279,158.545 322.613,161.211 324.5,163.5C 324.5,167.167 324.5,170.833 324.5,174.5C 312.482,174.168 300.482,174.501 288.5,175.5C 288.855,176.522 289.522,177.189 290.5,177.5C 291.464,181.797 294.13,184.464 298.5,185.5C 301.167,186.833 303.833,186.833 306.5,185.5C 309.45,184.692 312.117,183.358 314.5,181.5C 315.959,181.433 317.292,181.766 318.5,182.5C 319.5,183.167 320.5,183.833 321.5,184.5C 321.056,186.113 320.056,187.28 318.5,188C 319.337,189.011 319.67,190.178 319.5,191.5C 317.819,193.008 315.819,194.008 313.5,194.5C 307.195,195.487 300.862,195.653 294.5,195C 292.114,193.807 289.78,192.64 287.5,191.5C 285.167,189.833 283.167,187.833 281.5,185.5C 280.739,181.216 279.405,177.216 277.5,173.5C 277.317,166.89 278.983,160.89 282.5,155.5C 283.833,154.833 284.833,153.833 285.5,152.5C 287.434,151.89 289.101,150.89 290.5,149.5C 293.152,149.59 295.485,148.924 297.5,147.5 Z M 309.5,159.5 C 310.487,161.473 311.487,163.473 312.5,165.5C 305.532,166.497 298.532,166.83 291.5,166.5C 292.548,162.281 295.215,159.447 299.5,158C 303.069,157.318 306.402,157.818 309.5,159.5 Z"/></g>
<g><path style="opacity:0.999" fill="#f4f4f3" d="M 357.5,147.5 C 357.833,147.5 358.167,147.5 358.5,147.5C 362.963,147.423 367.296,148.09 371.5,149.5C 372.899,150.89 374.566,151.89 376.5,152.5C 377.366,154.144 377.866,155.811 378,157.5C 376.316,159.351 374.483,161.018 372.5,162.5C 371.583,161.873 370.583,161.539 369.5,161.5C 367.56,158.448 364.727,157.115 361,157.5C 357.832,157.106 355.332,158.106 353.5,160.5C 352.167,160.5 351.5,161.167 351.5,162.5C 349.088,162.694 348.088,164.027 348.5,166.5C 347.883,166.611 347.383,166.944 347,167.5C 346.199,170.367 346.366,173.034 347.5,175.5C 348.338,175.842 348.672,176.508 348.5,177.5C 348.427,179.027 349.094,180.027 350.5,180.5C 351.167,181.167 351.833,181.833 352.5,182.5C 353.058,183.79 354.058,184.623 355.5,185C 359.027,185.808 362.36,185.641 365.5,184.5C 366.391,183.89 367.391,183.557 368.5,183.5C 369.531,182.645 370.697,181.978 372,181.5C 373.731,182.741 375.564,183.741 377.5,184.5C 377.833,185.833 378.167,187.167 378.5,188.5C 376.248,192.424 372.915,194.757 368.5,195.5C 364.846,195.942 361.179,196.276 357.5,196.5C 357.167,196.5 356.833,196.5 356.5,196.5C 353.855,194.69 350.855,193.69 347.5,193.5C 345.596,193.262 344.262,192.262 343.5,190.5C 342.598,188.659 341.264,187.326 339.5,186.5C 339.573,184.973 338.906,183.973 337.5,183.5C 334.633,175.039 334.966,166.706 338.5,158.5C 341.167,156.5 343.5,154.167 345.5,151.5C 347.153,151.34 348.486,150.674 349.5,149.5C 352.341,149.44 355.007,148.774 357.5,147.5 Z"/></g>
<g><path style="opacity:0.999" fill="#f1f1f1" d="M 547.5,149.5 C 548.492,149.328 549.158,149.662 549.5,150.5C 550.422,152.816 552.089,154.483 554.5,155.5C 554.75,157.674 555.75,159.341 557.5,160.5C 557.575,163.206 557.908,165.873 558.5,168.5C 558.5,170.5 558.5,172.5 558.5,174.5C 546.655,174.172 534.988,174.505 523.5,175.5C 523.229,177.38 523.896,178.713 525.5,179.5C 525.427,181.027 526.094,182.027 527.5,182.5C 528.492,182.328 529.158,182.662 529.5,183.5C 531.508,185.927 534.174,186.927 537.5,186.5C 541.66,186.898 544.993,185.565 547.5,182.5C 548.833,182.167 550.167,181.833 551.5,181.5C 552.5,181.833 553.167,182.5 553.5,183.5C 553.398,185.756 553.732,188.089 554.5,190.5C 553.101,191.89 551.434,192.89 549.5,193.5C 540.482,196.164 531.482,196.164 522.5,193.5C 521.833,192.167 520.833,191.167 519.5,190.5C 518.598,188.659 517.264,187.326 515.5,186.5C 515.25,184.326 514.25,182.659 512.5,181.5C 510.368,176.359 510.035,171.026 511.5,165.5C 513.213,164.365 513.88,162.698 513.5,160.5C 516.413,157.245 519.413,153.911 522.5,150.5C 523.514,149.326 524.847,148.66 526.5,148.5C 533.577,147.082 540.577,147.416 547.5,149.5 Z M 539.5,157.5 C 540.514,158.674 541.847,159.34 543.5,159.5C 544.487,161.473 545.487,163.473 546.5,165.5C 539.189,166.665 531.856,166.831 524.5,166C 527.994,159.932 532.994,157.098 539.5,157.5 Z"/></g>
<g><path style="opacity:0.188" fill="#2e2e2e" d="M 583.5,148.5 C 578.706,147.903 574.373,148.57 570.5,150.5C 568.767,149.992 568.434,149.159 569.5,148C 573.779,146.756 578.112,146.423 582.5,147C 583.056,147.383 583.389,147.883 583.5,148.5 Z"/></g>
<g><path style="opacity:0.231" fill="#2d2d2c" d="M 646.5,128.5 C 647.49,134.645 647.823,140.978 647.5,147.5C 651.476,146.669 655.476,146.503 659.5,147C 661.671,150.677 662.004,154.511 660.5,158.5C 656.167,158.5 651.833,158.5 647.5,158.5C 647.5,166.167 647.5,173.833 647.5,181.5C 646.508,173.684 646.174,165.684 646.5,157.5C 650.833,157.5 655.167,157.5 659.5,157.5C 659.5,154.5 659.5,151.5 659.5,148.5C 655.167,148.5 650.833,148.5 646.5,148.5C 646.5,142.167 646.5,135.833 646.5,129.5C 646.5,129.167 646.5,128.833 646.5,128.5 Z"/></g>
<g><path style="opacity:0.188" fill="#303030" d="M 173.5,147.5 C 173.167,147.5 172.833,147.5 172.5,147.5C 166.754,147.181 161.754,148.847 157.5,152.5C 157.5,151.5 157.5,150.5 157.5,149.5C 159.901,148.951 162.235,148.118 164.5,147C 167.696,146.195 170.696,146.362 173.5,147.5 Z"/></g>
<g><path style="opacity:0.999" fill="#f4f4f4" d="M 266.5,148.5 C 266.667,166.17 266.5,183.836 266,201.5C 265.187,203.436 264.687,205.436 264.5,207.5C 264.167,208.5 263.5,209.167 262.5,209.5C 258.681,211.264 253.348,212.264 246.5,212.5C 246.167,212.5 245.833,212.5 245.5,212.5C 245.5,209.167 245.5,205.833 245.5,202.5C 248.831,202.982 251.497,201.982 253.5,199.5C 253.5,198.833 253.5,198.167 253.5,197.5C 254.496,181.342 254.83,165.009 254.5,148.5C 258.5,148.5 262.5,148.5 266.5,148.5 Z"/></g>
<g><path style="opacity:0.91" fill="#828282" d="M 295.5,147.5 C 296.167,147.5 296.833,147.5 297.5,147.5C 295.485,148.924 293.152,149.59 290.5,149.5C 291.78,148.069 293.447,147.402 295.5,147.5 Z"/></g>
<g><path style="opacity:0.918" fill="#696969" d="M 357.5,147.5 C 355.007,148.774 352.341,149.44 349.5,149.5C 351.954,147.337 354.62,146.67 357.5,147.5 Z"/></g>
<g><path style="opacity:0.998" fill="#f4f5f4" d="M 583.5,148.5 C 585.016,151.533 587.016,154.2 589.5,156.5C 590.055,158.729 591.389,160.395 593.5,161.5C 595.288,160.717 596.288,159.384 596.5,157.5C 596.782,156.222 597.449,155.222 598.5,154.5C 600.67,153.162 602.336,151.328 603.5,149C 607.833,148.333 612.167,148.333 616.5,149C 615.748,149.671 615.414,150.504 615.5,151.5C 614.5,151.833 613.833,152.5 613.5,153.5C 612.094,153.973 611.427,154.973 611.5,156.5C 610.094,156.973 609.427,157.973 609.5,159.5C 606.885,161.379 604.719,163.712 603,166.5C 602.209,167.745 601.709,169.078 601.5,170.5C 600.133,172.79 600.8,174.456 603.5,175.5C 603.738,177.404 604.738,178.738 606.5,179.5C 607.433,182.37 609.1,184.704 611.5,186.5C 612.433,189.37 614.1,191.704 616.5,193.5C 614.952,194.794 612.952,195.461 610.5,195.5C 607.783,195.386 605.116,195.052 602.5,194.5C 601.5,193.167 600.5,191.833 599.5,190.5C 599.573,188.973 598.906,187.973 597.5,187.5C 597.167,186.5 596.5,185.833 595.5,185.5C 595.582,183.748 594.749,182.748 593,182.5C 591.97,182.836 591.47,183.503 591.5,184.5C 591.5,185.167 591.167,185.5 590.5,185.5C 588.738,186.262 587.738,187.596 587.5,189.5C 587.167,190.5 586.5,191.167 585.5,191.5C 584.094,191.973 583.427,192.973 583.5,194.5C 583.5,195.167 583.167,195.5 582.5,195.5C 578.029,196.089 574.029,195.423 570.5,193.5C 571.906,193.027 572.573,192.027 572.5,190.5C 575.552,187.424 578.386,184.09 581,180.5C 581.791,179.255 582.291,177.922 582.5,176.5C 585.569,175.196 586.569,173.196 585.5,170.5C 585.167,169.5 584.5,168.833 583.5,168.5C 583.167,167.833 582.833,167.167 582.5,166.5C 582.446,164.368 581.446,163.035 579.5,162.5C 579.446,160.368 578.446,159.035 576.5,158.5C 576.446,156.368 575.446,155.035 573.5,154.5C 573.446,152.368 572.446,151.035 570.5,150.5C 574.373,148.57 578.706,147.903 583.5,148.5 Z"/></g>
<g><path style="opacity:0.612" fill="#6a696a" d="M 172.5,147.5 C 172.833,147.5 173.167,147.5 173.5,147.5C 174.647,151.646 174.814,155.98 174,160.5C 171.568,161.45 169.068,161.45 166.5,160.5C 165.5,160.5 164.5,160.5 163.5,160.5C 166.287,159.523 169.287,159.19 172.5,159.5C 172.5,155.5 172.5,151.5 172.5,147.5 Z"/></g>
<g><path style="opacity:0.067" fill="#262626" d="M 197.5,149.5 C 196.71,150.401 195.71,151.068 194.5,151.5C 194.821,149.952 195.821,149.285 197.5,149.5 Z"/></g>
<g><path style="opacity:0.082" fill="#2e2e2d" d="M 371.5,149.5 C 373.933,149.273 375.599,150.273 376.5,152.5C 374.566,151.89 372.899,150.89 371.5,149.5 Z"/></g>
<g><path style="opacity:0.004" fill="#1f1d1d" d="M 116.5,147.5 C 120.625,152.195 121.458,157.529 119,163.5C 117.629,165.041 116.129,166.375 114.5,167.5C 115.031,165.456 116.198,163.789 118,162.5C 119.635,157.344 119.135,152.344 116.5,147.5 Z"/></g>
<g><path style="opacity:0.031" fill="#2b2b2b" d="M 223.5,150.5 C 225.404,150.738 226.738,151.738 227.5,153.5C 225.596,153.262 224.262,152.262 223.5,150.5 Z"/></g>
<g><path style="opacity:0.227" fill="#2b2b2b" d="M 290.5,149.5 C 289.101,150.89 287.434,151.89 285.5,152.5C 286.401,150.273 288.067,149.273 290.5,149.5 Z"/></g>
<g><path style="opacity:0.302" fill="#2d2d2d" d="M 349.5,149.5 C 348.486,150.674 347.153,151.34 345.5,151.5C 346.287,149.896 347.62,149.229 349.5,149.5 Z"/></g>
<g><path style="opacity:0.425" fill="#5e5d5d" d="M 142.5,148.5 C 142.833,148.5 143.167,148.5 143.5,148.5C 143.5,164.167 143.5,179.833 143.5,195.5C 147.167,195.5 150.833,195.5 154.5,195.5C 154.334,187.16 154.5,178.827 155,170.5C 155.232,169.263 155.732,168.263 156.5,167.5C 156.666,176.839 156.5,186.173 156,195.5C 153.757,196.137 151.424,196.47 149,196.5C 146.3,196.609 143.8,196.109 141.5,195C 142.491,179.578 142.824,164.078 142.5,148.5 Z"/></g>
<g><path style="opacity:0.061" fill="#1a1919" d="M 501.5,121.5 C 478.5,121.5 455.5,121.5 432.5,121.5C 431.502,149.328 431.169,177.328 431.5,205.5C 430.502,177.338 430.169,149.005 430.5,120.5C 454.339,120.169 478.006,120.502 501.5,121.5 Z"/></g>
<g><path style="opacity:0.361" fill="#2a2a2a" d="M 615.5,151.5 C 615.414,150.504 615.748,149.671 616.5,149C 612.167,148.333 607.833,148.333 603.5,149C 602.336,151.328 600.67,153.162 598.5,154.5C 599.767,150.432 602.433,147.932 606.5,147C 610.167,146.333 613.833,146.333 617.5,147C 618.612,149.108 617.946,150.608 615.5,151.5 Z"/></g>
<g><path style="opacity:0.004" fill="#2e2e2e" d="M 549.5,150.5 C 551.911,151.517 553.578,153.184 554.5,155.5C 552.089,154.483 550.422,152.816 549.5,150.5 Z"/></g>
<g><path style="opacity:0.463" fill="#585858" d="M 570.5,150.5 C 572.446,151.035 573.446,152.368 573.5,154.5C 572.026,153.564 571.026,152.23 570.5,150.5 Z"/></g>
<g><path style="opacity:0.106" fill="#282828" d="M 583.5,148.5 C 586.471,150.443 588.471,153.109 589.5,156.5C 587.016,154.2 585.016,151.533 583.5,148.5 Z"/></g>
<g><path style="opacity:0.008" fill="#1c1c19" d="M 615.5,151.5 C 615.5,152.833 614.833,153.5 613.5,153.5C 613.833,152.5 614.5,151.833 615.5,151.5 Z"/></g>
<g><path style="opacity:0.137" fill="#202020" d="M 285.5,152.5 C 284.833,153.833 283.833,154.833 282.5,155.5C 282.5,153.5 283.5,152.5 285.5,152.5 Z"/></g>
<g><path style="opacity:0.243" fill="#3b3b3b" d="M 316.5,151.5 C 318.773,151.957 320.106,153.29 320.5,155.5C 318.659,154.598 317.326,153.264 316.5,151.5 Z"/></g>
<g><path style="opacity:0.545" fill="#5c5c5c" d="M 522.5,150.5 C 519.413,153.911 516.413,157.245 513.5,160.5C 515.105,155.896 518.105,152.562 522.5,150.5 Z"/></g>
<g><path style="opacity:0.649" fill="#858585" d="M 130.5,143.5 C 132.293,145.426 133.293,147.759 133.5,150.5C 133.813,154.042 133.479,157.375 132.5,160.5C 132.79,154.678 132.123,149.012 130.5,143.5 Z"/></g>
<g><path style="opacity:0.256" fill="#303030" d="M 266.5,148.5 C 266.833,148.5 267.167,148.5 267.5,148.5C 268.964,166.52 268.797,184.52 267,202.5C 266.626,204.491 265.793,206.158 264.5,207.5C 264.687,205.436 265.187,203.436 266,201.5C 266.5,183.836 266.667,166.17 266.5,148.5 Z"/></g>
<g><path style="opacity:0.004" fill="#313131" d="M 462.5,152.5 C 464.452,153.785 466.118,155.451 467.5,157.5C 464.856,156.856 463.189,155.189 462.5,152.5 Z"/></g>
<g><path style="opacity:0.035" fill="#3d3d3c" d="M 613.5,153.5 C 613.573,155.027 612.906,156.027 611.5,156.5C 611.427,154.973 612.094,153.973 613.5,153.5 Z"/></g>
<g><path style="opacity:0.4" fill="#464646" d="M 227.5,153.5 C 229.914,154.911 231.581,156.911 232.5,159.5C 230.086,158.089 228.419,156.089 227.5,153.5 Z"/></g>
<g><path style="opacity:0.49" fill="#5a5a5a" d="M 573.5,154.5 C 575.446,155.035 576.446,156.368 576.5,158.5C 575.026,157.564 574.026,156.23 573.5,154.5 Z"/></g>
<g><path style="opacity:0.019" fill="#191919" d="M 133.5,150.5 C 134.643,153.976 134.81,157.642 134,161.5C 133.76,163.852 132.927,165.852 131.5,167.5C 131.674,165.139 132.007,162.806 132.5,160.5C 133.479,157.375 133.813,154.042 133.5,150.5 Z"/></g>
<g><path style="opacity:0.18" fill="#3e3e3d" d="M 320.5,155.5 C 322.771,157.612 324.104,160.279 324.5,163.5C 322.613,161.211 321.279,158.545 320.5,155.5 Z"/></g>
<g><path style="opacity:0.204" fill="#2e2e2e" d="M 345.5,151.5 C 343.5,154.167 341.167,156.5 338.5,158.5C 339.833,155.167 342.167,152.833 345.5,151.5 Z"/></g>
<g><path style="opacity:0.451" fill="#595959" d="M 369.5,161.5 C 364.361,158.217 359.028,157.883 353.5,160.5C 355.332,158.106 357.832,157.106 361,157.5C 364.727,157.115 367.56,158.448 369.5,161.5 Z"/></g>
<g><path style="opacity:0.357" fill="#585858" d="M 421.5,148.5 C 421.833,148.5 422.167,148.5 422.5,148.5C 422.643,151.523 422.643,154.857 422.5,158.5C 417.833,158.5 413.167,158.5 408.5,158.5C 412.634,157.515 416.968,157.182 421.5,157.5C 421.5,154.5 421.5,151.5 421.5,148.5 Z"/></g>
<g><path style="opacity:0.847" fill="#706e70" d="M 539.5,157.5 C 541.483,157.157 542.817,157.824 543.5,159.5C 541.847,159.34 540.514,158.674 539.5,157.5 Z"/></g>
<g><path style="opacity:0.098" fill="#232323" d="M 554.5,155.5 C 556.25,156.659 557.25,158.326 557.5,160.5C 555.75,159.341 554.75,157.674 554.5,155.5 Z"/></g>
<g><path style="opacity:0.043" fill="#2f2f2f" d="M 611.5,156.5 C 611.573,158.027 610.906,159.027 609.5,159.5C 609.427,157.973 610.094,156.973 611.5,156.5 Z"/></g>
<g><path style="opacity:0.027" fill="#3a3a3a" d="M 467.5,157.5 C 469.914,158.911 471.581,160.911 472.5,163.5C 470.086,162.089 468.419,160.089 467.5,157.5 Z"/></g>
<g><path style="opacity:0.733" fill="#696969" d="M 576.5,158.5 C 578.446,159.035 579.446,160.368 579.5,162.5C 578.026,161.564 577.026,160.23 576.5,158.5 Z"/></g>
<g><path style="opacity:0.384" fill="#585756" d="M 214.5,159.5 C 209.579,158.228 204.912,158.895 200.5,161.5C 201.36,159.386 203.027,158.22 205.5,158C 208.863,157.073 211.863,157.573 214.5,159.5 Z"/></g>
<g><path style="opacity:0.076" fill="#1a1a1a" d="M 267.5,148.5 C 267.167,148.5 266.833,148.5 266.5,148.5C 262.5,148.5 258.5,148.5 254.5,148.5C 254.83,165.009 254.496,181.342 253.5,197.5C 253.333,180.83 253.5,164.163 254,147.5C 256.243,146.863 258.576,146.53 261,146.5C 263.61,146.533 265.777,147.2 267.5,148.5 Z"/></g>
<g><path style="opacity:0.297" fill="#494847" d="M 395.5,129.5 C 395.833,129.5 396.167,129.5 396.5,129.5C 396.5,135.833 396.5,142.167 396.5,148.5C 394.167,148.5 391.833,148.5 389.5,148.5C 389.5,151.5 389.5,154.5 389.5,157.5C 391.833,157.5 394.167,157.5 396.5,157.5C 396.334,166.173 396.5,174.84 397,183.5C 397.875,188.252 400.041,192.252 403.5,195.5C 401.284,194.797 399.451,193.464 398,191.5C 396.829,188.65 395.662,185.816 394.5,183C 395.37,174.75 395.703,166.583 395.5,158.5C 393.167,158.5 390.833,158.5 388.5,158.5C 388.335,154.818 388.501,151.152 389,147.5C 391,146.167 393,146.167 395,147.5C 395.499,141.509 395.666,135.509 395.5,129.5 Z"/></g>
<g><path style="opacity:0.027" fill="#2d2d2d" d="M 589.5,156.5 C 590.815,157.476 592.148,158.476 593.5,159.5C 594.518,158.807 595.518,158.141 596.5,157.5C 596.288,159.384 595.288,160.717 593.5,161.5C 591.389,160.395 590.055,158.729 589.5,156.5 Z"/></g>
<g><path style="opacity:0.337" fill="#535351" d="M 646.5,128.5 C 646.5,128.833 646.5,129.167 646.5,129.5C 642.5,129.5 638.5,129.5 634.5,129.5C 634.5,135.833 634.5,142.167 634.5,148.5C 632.167,148.5 629.833,148.5 627.5,148.5C 627.5,151.5 627.5,154.5 627.5,157.5C 629.833,157.5 632.167,157.5 634.5,157.5C 634.5,167.167 634.5,176.833 634.5,186.5C 633.506,177.348 633.173,168.015 633.5,158.5C 631.167,158.5 628.833,158.5 626.5,158.5C 626.5,154.833 626.5,151.167 626.5,147.5C 628.833,147.5 631.167,147.5 633.5,147.5C 633.5,141.167 633.5,134.833 633.5,128.5C 637.833,128.5 642.167,128.5 646.5,128.5 Z"/></g>
<g><path style="opacity:0.243" fill="#353434" d="M 214.5,159.5 C 218.082,159.955 220.415,161.955 221.5,165.5C 219.142,163.471 216.808,161.471 214.5,159.5 Z"/></g>
<g><path style="opacity:0.114" fill="#414141" d="M 353.5,160.5 C 353.167,161.5 352.5,162.167 351.5,162.5C 351.5,161.167 352.167,160.5 353.5,160.5 Z"/></g>
<g><path style="opacity:0.031" fill="#3f3f3e" d="M 376.5,152.5 C 378.757,153.562 379.923,155.228 380,157.5C 377.629,160.206 374.963,162.539 372,164.5C 370.955,163.627 370.122,162.627 369.5,161.5C 370.583,161.539 371.583,161.873 372.5,162.5C 374.483,161.018 376.316,159.351 378,157.5C 377.866,155.811 377.366,154.144 376.5,152.5 Z"/></g>
<g><path style="opacity:0.294" fill="#403c3f" d="M 163.5,160.5 C 164.5,160.5 165.5,160.5 166.5,160.5C 164.188,161.341 161.855,162.341 159.5,163.5C 160.035,161.554 161.368,160.554 163.5,160.5 Z"/></g>
<g><path style="opacity:0.239" fill="#2d2c2d" d="M 192.5,152.5 C 180.97,164.861 180.637,177.527 191.5,190.5C 180.184,180.651 178.684,169.318 187,156.5C 188.451,154.536 190.284,153.203 192.5,152.5 Z"/></g>
<g><path style="opacity:0.231" fill="#2e2c2d" d="M 454.5,159.5 C 457.573,161.569 459.906,164.236 461.5,167.5C 458.427,165.431 456.094,162.764 454.5,159.5 Z"/></g>
<g><path style="opacity:0.49" fill="#757574" d="M 494.5,133.5 C 495.497,154.327 495.831,175.327 495.5,196.5C 487.865,196.868 482.532,193.535 479.5,186.5C 482.297,188.795 484.964,191.295 487.5,194C 489.764,194.236 491.931,194.736 494,195.5C 494.5,174.836 494.667,154.169 494.5,133.5 Z"/></g>
<g><path style="opacity:0.741" fill="#686868" d="M 579.5,162.5 C 581.446,163.035 582.446,164.368 582.5,166.5C 581.026,165.564 580.026,164.23 579.5,162.5 Z"/></g>
<g><path style="opacity:1" fill="#8d8c8a" d="M 159.5,163.5 C 158.488,164.872 157.488,166.205 156.5,167.5C 156.185,165.774 156.019,164.107 156,162.5C 157.011,163.337 158.178,163.67 159.5,163.5 Z"/></g>
<g><path style="opacity:0.616" fill="#585857" d="M 481.5,152.5 C 482.338,152.842 482.672,153.508 482.5,154.5C 482.829,160.537 482.496,166.537 481.5,172.5C 478.146,169.812 475.146,166.812 472.5,163.5C 475.731,165.22 478.564,167.553 481,170.5C 481.499,164.509 481.666,158.509 481.5,152.5 Z"/></g>
<g><path style="opacity:0.192" fill="#414141" d="M 351.5,162.5 C 350.488,163.872 349.488,165.205 348.5,166.5C 348.088,164.027 349.088,162.694 351.5,162.5 Z"/></g>
<g><path style="opacity:0.173" fill="#3b3b37" d="M 513.5,160.5 C 513.88,162.698 513.213,164.365 511.5,165.5C 511.062,165.565 510.728,165.399 510.5,165C 511.399,163.348 512.399,161.848 513.5,160.5 Z"/></g>
<g><path style="opacity:0.008" fill="#2b2a2a" d="M 609.5,159.5 C 607.565,163.707 604.898,167.373 601.5,170.5C 601.709,169.078 602.209,167.745 603,166.5C 604.719,163.712 606.885,161.379 609.5,159.5 Z"/></g>
<g><path style="opacity:0.057" fill="#1e1e1e" d="M 309.5,159.5 C 312.892,160.99 314.226,163.657 313.5,167.5C 305.833,167.5 298.167,167.5 290.5,167.5C 290.5,166.5 290.5,165.5 290.5,164.5C 294.013,157.321 299.68,154.988 307.5,157.5C 308.243,158.182 308.909,158.849 309.5,159.5 Z M 309.5,159.5 C 306.402,157.818 303.069,157.318 299.5,158C 295.215,159.447 292.548,162.281 291.5,166.5C 298.532,166.83 305.532,166.497 312.5,165.5C 311.487,163.473 310.487,161.473 309.5,159.5 Z"/></g>
<g><path style="opacity:0.215" fill="#232323" d="M 445.5,134.5 C 443.5,134.5 441.5,134.5 439.5,134.5C 439.333,154.503 439.5,174.503 440,194.5C 443.224,194.299 446.557,194.633 450,195.5C 449.396,182.532 449.563,169.532 450.5,156.5C 451.5,156.5 452.5,156.5 453.5,156.5C 453.5,157.5 453.5,158.5 453.5,159.5C 452.883,159.389 452.383,159.056 452,158.5C 451.5,171.162 451.333,183.829 451.5,196.5C 447.167,196.5 442.833,196.5 438.5,196.5C 438.5,175.5 438.5,154.5 438.5,133.5C 441.059,133.198 443.393,133.532 445.5,134.5 Z"/></g>
<g><path style="opacity:0.018" fill="#252424" d="M 539.5,157.5 C 532.994,157.098 527.994,159.932 524.5,166C 531.856,166.831 539.189,166.665 546.5,165.5C 545.487,163.473 544.487,161.473 543.5,159.5C 546.892,160.99 548.226,163.657 547.5,167.5C 539.5,167.5 531.5,167.5 523.5,167.5C 525.634,158.655 530.967,155.322 539.5,157.5 Z"/></g>
<g><path style="opacity:0.554" fill="#8d8d8d" d="M 290.5,164.5 C 290.5,165.5 290.5,166.5 290.5,167.5C 298.167,167.5 305.833,167.5 313.5,167.5C 305.684,168.492 297.684,168.826 289.5,168.5C 289.232,166.901 289.566,165.568 290.5,164.5 Z"/></g>
<g><path style="opacity:0.255" fill="#333331" d="M 557.5,160.5 C 558.564,163.186 559.564,166.02 560.5,169C 560.43,169.765 560.097,170.265 559.5,170.5C 559.672,169.508 559.338,168.842 558.5,168.5C 557.908,165.873 557.575,163.206 557.5,160.5 Z"/></g>
<g><path style="opacity:0.161" fill="#2f2f2f" d="M 96.5,144.5 C 96.5,144.833 96.5,145.167 96.5,145.5C 96.2689,153.209 96.6022,160.876 97.5,168.5C 102.87,168.608 108.203,168.275 113.5,167.5C 112.737,168.268 111.737,168.768 110.5,169C 105.511,169.499 100.511,169.666 95.5,169.5C 95.1739,160.983 95.5073,152.65 96.5,144.5 Z"/></g>
<g><path style="opacity:0.608" fill="#636262" d="M 461.5,167.5 C 464.5,169.833 467.167,172.5 469.5,175.5C 465.833,173.833 463.167,171.167 461.5,167.5 Z"/></g>
<g><path style="opacity:0.2" fill="#3b3b3b" d="M 131.5,167.5 C 131.25,169.674 130.25,171.341 128.5,172.5C 128.75,170.326 129.75,168.659 131.5,167.5 Z"/></g>
<g><path style="opacity:0.004" fill="#191919" d="M 583.5,168.5 C 584.5,168.833 585.167,169.5 585.5,170.5C 584.167,170.5 583.5,169.833 583.5,168.5 Z"/></g>
<g><path style="opacity:0.639" fill="#5c5c5c" d="M 232.5,159.5 C 236.618,165.997 237.452,172.997 235,180.5C 233.974,183.239 232.474,185.572 230.5,187.5C 234.991,178.452 235.657,169.119 232.5,159.5 Z"/></g>
<g><path style="opacity:0.204" fill="#31312f" d="M 282.5,155.5 C 278.983,160.89 277.317,166.89 277.5,173.5C 277.5,174.833 277.5,176.167 277.5,177.5C 275.799,170.622 276.633,163.955 280,157.5C 280.708,156.619 281.542,155.953 282.5,155.5 Z"/></g>
<g><path style="opacity:0.437" fill="#4a4a4a" d="M 338.5,158.5 C 334.966,166.706 334.633,175.039 337.5,183.5C 335.672,180.865 334.505,177.865 334,174.5C 333.893,171.869 333.727,169.369 333.5,167C 334.714,163.806 336.38,160.972 338.5,158.5 Z"/></g>
<g><path style="opacity:0.106" fill="#353535" d="M 348.5,166.5 C 348.221,169.775 347.888,172.775 347.5,175.5C 346.366,173.034 346.199,170.367 347,167.5C 347.383,166.944 347.883,166.611 348.5,166.5 Z"/></g>
<g><path style="opacity:0.043" fill="#2f2e2e" d="M 221.5,165.5 C 222.117,165.611 222.617,165.944 223,166.5C 223.667,170.167 223.667,173.833 223,177.5C 222.004,179.66 220.504,181.327 218.5,182.5C 219.845,180.303 221.011,177.97 222,175.5C 222.388,172.151 222.221,168.817 221.5,165.5 Z"/></g>
<g><path style="opacity:0.608" fill="#6c6c6c" d="M 585.5,170.5 C 586.569,173.196 585.569,175.196 582.5,176.5C 583.5,174.5 584.5,172.5 585.5,170.5 Z"/></g>
<g><path style="opacity:0.302" fill="#4e4e4e" d="M 601.5,170.5 C 602.167,172.167 602.833,173.833 603.5,175.5C 600.8,174.456 600.133,172.79 601.5,170.5 Z"/></g>
<g><path style="opacity:0.98" fill="#8d8d8d" d="M 124.5,175.5 C 123.089,177.539 121.089,178.539 118.5,178.5C 119.611,177.34 120.611,176.007 121.5,174.5C 122.417,175.127 123.417,175.461 124.5,175.5 Z"/></g>
<g><path style="opacity:0.514" fill="#494949" d="M 198.5,163.5 C 196.111,167.635 195.444,171.968 196.5,176.5C 195.007,175.688 194.34,174.355 194.5,172.5C 194.696,168.884 196.029,165.884 198.5,163.5 Z"/></g>
<g><path style="opacity:0.587" fill="#5b5b5a" d="M 324.5,163.5 C 325.234,164.878 325.901,166.378 326.5,168C 325.833,170.667 325.167,173.333 324.5,176C 313.353,176.512 302.186,176.346 291,175.5C 290.536,176.094 290.369,176.761 290.5,177.5C 289.522,177.189 288.855,176.522 288.5,175.5C 300.482,174.501 312.482,174.168 324.5,174.5C 324.5,170.833 324.5,167.167 324.5,163.5 Z"/></g>
<g><path style="opacity:0.582" fill="#7b7a79" d="M 558.5,168.5 C 559.338,168.842 559.672,169.508 559.5,170.5C 559.739,172.467 559.406,174.301 558.5,176C 554.745,176.755 551.078,176.589 547.5,175.5C 539.5,175.5 531.5,175.5 523.5,175.5C 534.988,174.505 546.655,174.172 558.5,174.5C 558.5,172.5 558.5,170.5 558.5,168.5 Z"/></g>
<g><path style="opacity:0.03" fill="#121313" d="M 523.5,175.5 C 531.5,175.5 539.5,175.5 547.5,175.5C 540.011,176.329 532.344,176.829 524.5,177C 525.252,177.671 525.586,178.504 525.5,179.5C 523.896,178.713 523.229,177.38 523.5,175.5 Z"/></g>
<g><path style="opacity:0.537" fill="#464646" d="M 469.5,175.5 C 472.903,177.9 475.57,180.9 477.5,184.5C 474.097,182.1 471.43,179.1 469.5,175.5 Z"/></g>
<g><path style="opacity:0.31" fill="#323131" d="M 603.5,175.5 C 605.262,176.262 606.262,177.596 606.5,179.5C 604.738,178.738 603.738,177.404 603.5,175.5 Z"/></g>
<g><path style="opacity:0.031" fill="#2c2b2c" d="M 196.5,176.5 C 197.89,177.899 198.89,179.566 199.5,181.5C 197.273,180.599 196.273,178.933 196.5,176.5 Z"/></g>
<g><path style="opacity:0.153" fill="#353533" d="M 290.5,177.5 C 292.833,180.5 295.5,183.167 298.5,185.5C 294.13,184.464 291.464,181.797 290.5,177.5 Z"/></g>
<g><path style="opacity:0.067" fill="#1e1d1d" d="M 348.5,177.5 C 349.906,177.973 350.573,178.973 350.5,180.5C 349.094,180.027 348.427,179.027 348.5,177.5 Z"/></g>
<g><path style="opacity:0.929" fill="#9d9d9d" d="M 277.5,173.5 C 279.405,177.216 280.739,181.216 281.5,185.5C 281.167,185.5 280.833,185.5 280.5,185.5C 278.733,183.208 277.733,180.542 277.5,177.5C 277.5,176.167 277.5,174.833 277.5,173.5 Z"/></g>
<g><path style="opacity:0.557" fill="#3e3e3e" d="M 318.5,182.5 C 317.292,181.766 315.959,181.433 314.5,181.5C 314.47,180.503 314.97,179.836 316,179.5C 317.749,179.748 318.582,180.748 318.5,182.5 Z"/></g>
<g><path style="opacity:0.663" fill="#4a4a4a" d="M 377.5,184.5 C 375.564,183.741 373.731,182.741 372,181.5C 370.697,181.978 369.531,182.645 368.5,183.5C 368.762,181.436 369.929,180.103 372,179.5C 374.328,180.664 376.162,182.33 377.5,184.5 Z"/></g>
<g><path style="opacity:0.357" fill="#434343" d="M 551.5,181.5 C 550.167,181.833 548.833,182.167 547.5,182.5C 548.668,179.531 550.001,179.198 551.5,181.5 Z"/></g>
<g><path style="opacity:0.239" fill="#373737" d="M 525.5,179.5 C 526.906,179.973 527.573,180.973 527.5,182.5C 526.094,182.027 525.427,181.027 525.5,179.5 Z"/></g>
<g><path style="opacity:0.502" fill="#585858" d="M 582.5,176.5 C 582.291,177.922 581.791,179.255 581,180.5C 578.386,184.09 575.552,187.424 572.5,190.5C 574.855,185.12 578.188,180.454 582.5,176.5 Z"/></g>
<g><path style="opacity:0.161" fill="#252525" d="M 595.5,185.5 C 594.295,183.862 592.962,183.529 591.5,184.5C 591.47,183.503 591.97,182.836 593,182.5C 594.749,182.748 595.582,183.748 595.5,185.5 Z"/></g>
<g><path style="opacity:0.067" fill="#242424" d="M 606.5,179.5 C 608.9,181.296 610.567,183.63 611.5,186.5C 609.1,184.704 607.433,182.37 606.5,179.5 Z"/></g>
<g><path style="opacity:0.157" fill="#353535" d="M 512.5,181.5 C 514.25,182.659 515.25,184.326 515.5,186.5C 513.75,185.341 512.75,183.674 512.5,181.5 Z"/></g>
<g><path style="opacity:0.008" fill="#201d20" d="M 200.5,182.5 C 203.871,183.716 207.205,184.716 210.5,185.5C 208.143,185.663 205.81,185.497 203.5,185C 202.058,184.623 201.058,183.79 200.5,182.5 Z"/></g>
<g><path style="opacity:0.753" fill="#565656" d="M 218.5,182.5 C 216.815,184.818 214.481,185.818 211.5,185.5C 213.604,184.088 215.937,183.088 218.5,182.5 Z"/></g>
<g><path style="opacity:0.018" fill="#161616" d="M 352.5,182.5 C 356.636,184.183 360.969,184.85 365.5,184.5C 362.36,185.641 359.027,185.808 355.5,185C 354.058,184.623 353.058,183.79 352.5,182.5 Z"/></g>
<g><path style="opacity:0.008" fill="#212121" d="M 477.5,184.5 C 478.833,184.5 479.5,185.167 479.5,186.5C 478.5,186.167 477.833,185.5 477.5,184.5 Z"/></g>
<g><path style="opacity:0.286" fill="#383837" d="M 306.5,185.5 C 303.833,186.833 301.167,186.833 298.5,185.5C 301.397,184.985 304.064,184.985 306.5,185.5 Z"/></g>
<g><path style="opacity:0.067" fill="#2b2b2b" d="M 337.5,183.5 C 338.906,183.973 339.573,184.973 339.5,186.5C 338.094,186.027 337.427,185.027 337.5,183.5 Z"/></g>
<g><path style="opacity:0.139" fill="#2a2a2a" d="M 409.5,181.5 C 410.429,182.936 411.595,184.269 413,185.5C 415.68,185.015 418.347,184.682 421,184.5C 421.833,185.333 422.667,186.167 423.5,187C 423.162,190.254 422.162,193.088 420.5,195.5C 421.403,192.609 421.736,189.609 421.5,186.5C 418.15,186.665 414.817,186.498 411.5,186C 409.963,184.89 409.297,183.39 409.5,181.5 Z"/></g>
<g><path style="opacity:0.341" fill="#535353" d="M 547.5,182.5 C 544.993,185.565 541.66,186.898 537.5,186.5C 534.174,186.927 531.508,185.927 529.5,183.5C 535.735,186.183 541.735,185.85 547.5,182.5 Z"/></g>
<g><path style="opacity:0.996" fill="#9c9c9c" d="M 321.5,184.5 C 322.627,185.122 323.627,185.955 324.5,187C 322.963,188.707 321.296,190.207 319.5,191.5C 319.67,190.178 319.337,189.011 318.5,188C 320.056,187.28 321.056,186.113 321.5,184.5 Z"/></g>
<g><path style="opacity:0.4" fill="#4c4c4c" d="M 377.5,184.5 C 380.469,185.668 380.802,187.001 378.5,188.5C 378.167,187.167 377.833,185.833 377.5,184.5 Z"/></g>
<g><path style="opacity:0.528" fill="#696967" d="M 432.5,121.5 C 432.5,121.833 432.5,122.167 432.5,122.5C 432.5,154.5 432.5,186.5 432.5,218.5C 455.327,219.498 478.327,219.831 501.5,219.5C 478.33,220.829 454.997,220.829 431.5,219.5C 431.359,215.015 431.359,210.348 431.5,205.5C 431.169,177.328 431.502,149.328 432.5,121.5 Z"/></g>
<g><path style="opacity:0.99" fill="#979797" d="M 553.5,183.5 C 559.436,185.362 559.769,187.695 554.5,190.5C 553.732,188.089 553.398,185.756 553.5,183.5 Z"/></g>
<g><path style="opacity:0.004" fill="#191919" d="M 595.5,185.5 C 596.5,185.833 597.167,186.5 597.5,187.5C 596.167,187.5 595.5,186.833 595.5,185.5 Z"/></g>
<g><path style="opacity:0.251" fill="#393938" d="M 647.5,181.5 C 648.493,183.323 649.993,184.656 652,185.5C 654.668,185.167 657.501,185.167 660.5,185.5C 660.38,187.734 660.713,189.901 661.5,192C 661.192,193.459 660.525,194.626 659.5,195.5C 659.5,192.5 659.5,189.5 659.5,186.5C 656.15,186.665 652.817,186.498 649.5,186C 647.963,184.89 647.297,183.39 647.5,181.5 Z"/></g>
<g><path style="opacity:0.047" fill="#353535" d="M 280.5,185.5 C 280.833,185.5 281.167,185.5 281.5,185.5C 283.167,187.833 285.167,189.833 287.5,191.5C 287.833,192.167 288.167,192.833 288.5,193.5C 284.833,191.833 282.167,189.167 280.5,185.5 Z"/></g>
<g><path style="opacity:0.031" fill="#353535" d="M 590.5,185.5 C 590.262,187.404 589.262,188.738 587.5,189.5C 587.738,187.596 588.738,186.262 590.5,185.5 Z"/></g>
<g><path style="opacity:0.067" fill="#383838" d="M 230.5,187.5 C 229.415,189.587 227.749,190.92 225.5,191.5C 226.585,189.413 228.251,188.08 230.5,187.5 Z"/></g>
<g><path style="opacity:0.02" fill="#3e3d3d" d="M 339.5,186.5 C 341.264,187.326 342.598,188.659 343.5,190.5C 341.29,190.106 339.957,188.773 339.5,186.5 Z"/></g>
<g><path style="opacity:0.408" fill="#565656" d="M 515.5,186.5 C 517.264,187.326 518.598,188.659 519.5,190.5C 517.29,190.106 515.957,188.773 515.5,186.5 Z"/></g>
<g><path style="opacity:0.039" fill="#282727" d="M 597.5,187.5 C 598.906,187.973 599.573,188.973 599.5,190.5C 598.094,190.027 597.427,189.027 597.5,187.5 Z"/></g>
<g><path style="opacity:0.027" fill="#292929" d="M 611.5,186.5 C 613.9,188.296 615.567,190.63 616.5,193.5C 614.1,191.704 612.433,189.37 611.5,186.5 Z"/></g>
<g><path style="opacity:0.286" fill="#4b4b4b" d="M 634.5,186.5 C 636.42,189.762 638.754,192.762 641.5,195.5C 637.312,193.975 634.979,190.975 634.5,186.5 Z"/></g>
<g><path style="opacity:0.486" fill="#464544" d="M 191.5,190.5 C 193.404,190.738 194.738,191.738 195.5,193.5C 193.596,193.262 192.262,192.262 191.5,190.5 Z"/></g>
<g><path style="opacity:0.004" fill="#292929" d="M 519.5,190.5 C 520.833,191.167 521.833,192.167 522.5,193.5C 520.5,193.5 519.5,192.5 519.5,190.5 Z"/></g>
<g><path style="opacity:0.471" fill="#484848" d="M 572.5,190.5 C 572.573,192.027 571.906,193.027 570.5,193.5C 570.427,191.973 571.094,190.973 572.5,190.5 Z"/></g>
<g><path style="opacity:0.835" fill="#706f6e" d="M 347.5,193.5 C 350.855,193.69 353.855,194.69 356.5,196.5C 353.084,196.472 350.084,195.472 347.5,193.5 Z"/></g>
<g><path style="opacity:0.055" fill="#333333" d="M 585.5,191.5 C 585.573,193.027 584.906,194.027 583.5,194.5C 583.427,192.973 584.094,191.973 585.5,191.5 Z"/></g>
<g><path style="opacity:0.706" fill="#707070" d="M 287.5,191.5 C 289.78,192.64 292.114,193.807 294.5,195C 300.862,195.653 307.195,195.487 313.5,194.5C 305.018,198.567 296.685,198.233 288.5,193.5C 288.167,192.833 287.833,192.167 287.5,191.5 Z"/></g>
<g><path style="opacity:0.796" fill="#838382" d="M 225.5,191.5 C 215.933,198.612 205.933,199.279 195.5,193.5C 202.021,195.371 208.687,195.871 215.5,195C 218.679,193.429 222.013,192.262 225.5,191.5 Z"/></g>
<g><path style="opacity:0.804" fill="#7f7f7e" d="M 522.5,193.5 C 531.482,196.164 540.482,196.164 549.5,193.5C 542.365,197.661 534.865,198.328 527,195.5C 526.667,195.833 526.333,196.167 526,196.5C 524.855,195.364 523.688,194.364 522.5,193.5 Z"/></g>
<g><path style="opacity:0.335" fill="#525252" d="M 570.5,193.5 C 574.029,195.423 578.029,196.089 582.5,195.5C 577.985,196.812 573.318,196.812 568.5,195.5C 568.855,194.478 569.522,193.811 570.5,193.5 Z"/></g>
<g><path style="opacity:0.349" fill="#4a4a4a" d="M 616.5,193.5 C 617.478,193.811 618.145,194.478 618.5,195.5C 613.533,196.662 608.533,196.829 603.5,196C 602.944,195.617 602.611,195.117 602.5,194.5C 605.116,195.052 607.783,195.386 610.5,195.5C 612.952,195.461 614.952,194.794 616.5,193.5 Z"/></g>
<g><path style="opacity:0.169" fill="#373635" d="M 368.5,195.5 C 364.931,197.441 361.265,197.774 357.5,196.5C 361.179,196.276 364.846,195.942 368.5,195.5 Z"/></g>
<g><path style="opacity:0.294" fill="#3a3738" d="M 253.5,199.5 C 251.497,201.982 248.831,202.982 245.5,202.5C 245.5,205.833 245.5,209.167 245.5,212.5C 244.518,209.038 244.185,205.371 244.5,201.5C 247.692,201.595 250.692,200.929 253.5,199.5 Z"/></g>
<g><path style="opacity:0.99" fill="#71716f" d="M 262.5,209.5 C 261.251,211.136 259.584,212.303 257.5,213C 253.642,213.81 249.976,213.643 246.5,212.5C 253.348,212.264 258.681,211.264 262.5,209.5 Z"/></g>
<g><path style="opacity:0.882" fill="#a9a9a9" d="M 432.5,122.5 C 432.5,122.167 432.5,121.833 432.5,121.5C 455.5,121.5 478.5,121.5 501.5,121.5C 502.833,154.167 502.833,186.833 501.5,219.5C 478.327,219.831 455.327,219.498 432.5,218.5C 455.167,218.5 477.833,218.5 500.5,218.5C 500.5,186.5 500.5,154.5 500.5,122.5C 477.833,122.5 455.167,122.5 432.5,122.5 Z"/></g>
<g><path style="opacity:0.114" fill="#2a2925" d="M 488.5,234.5 C 487.167,234.5 486.5,235.167 486.5,236.5C 485.833,236.833 485.167,237.167 484.5,237.5C 484.649,236.448 484.483,235.448 484,234.5C 483.184,235.823 482.017,236.489 480.5,236.5C 482.615,233.483 485.282,232.816 488.5,234.5 Z"/></g>
<g><path style="opacity:0.937" fill="#e0dedd" d="M 258.5,234.5 C 259.167,234.5 259.833,234.5 260.5,234.5C 262.046,236.882 262.713,239.549 262.5,242.5C 262.014,244.952 262.014,247.618 262.5,250.5C 262.672,251.492 262.338,252.158 261.5,252.5C 259.801,252.66 258.134,252.494 256.5,252C 257.942,251.623 258.942,250.79 259.5,249.5C 261.2,246.401 260.2,244.401 256.5,243.5C 258.744,242.997 260.078,241.663 260.5,239.5C 260.253,238.287 259.586,237.62 258.5,237.5C 257.909,236.849 257.243,236.182 256.5,235.5C 256.957,234.702 257.624,234.369 258.5,234.5 Z"/></g>
<g><path style="opacity:0.024" fill="#2a2a2a" d="M 299.5,234.5 C 300.708,233.218 302.042,233.218 303.5,234.5C 303.376,235.107 303.043,235.44 302.5,235.5C 301.791,234.596 300.791,234.263 299.5,234.5 Z"/></g>
<g><path style="opacity:0.098" fill="#222222" d="M 424.5,235.5 C 422.402,234.086 421.402,234.752 421.5,237.5C 420.566,236.432 420.232,235.099 420.5,233.5C 422.483,233.157 423.817,233.824 424.5,235.5 Z"/></g>
<g><path style="opacity:0.071" fill="#1d1d1c" d="M 438.5,253.5 C 438.5,247.167 438.5,240.833 438.5,234.5C 437.5,234.5 436.5,234.5 435.5,234.5C 435.5,240.833 435.5,247.167 435.5,253.5C 434.833,251.5 434.167,249.5 433.5,247.5C 433.795,245.265 433.461,243.265 432.5,241.5C 433.968,239.084 434.635,236.417 434.5,233.5C 436.167,233.5 437.833,233.5 439.5,233.5C 439.824,240.354 439.491,247.021 438.5,253.5 Z"/></g>
<g><path style="opacity:0.965" fill="#a4a3a1" d="M 295.5,237.5 C 295.649,238.552 295.483,239.552 295,240.5C 294.329,239.748 293.496,239.414 292.5,239.5C 291.85,237.565 291.517,235.565 291.5,233.5C 294.5,233.167 295.833,234.5 295.5,237.5 Z"/></g>
<g><path style="opacity:0.557" fill="#91908f" d="M 346.5,234.5 C 347.08,238.649 346.414,242.316 344.5,245.5C 344.167,244.167 343.833,244.167 343.5,245.5C 342.326,244.486 341.66,243.153 341.5,241.5C 343.369,239.365 344.036,236.698 343.5,233.5C 344.791,233.263 345.791,233.596 346.5,234.5 Z"/></g>
<g><path style="opacity:0.914" fill="#c6c5c4" d="M 299.5,234.5 C 300.791,234.263 301.791,234.596 302.5,235.5C 302.5,236.167 302.5,236.833 302.5,237.5C 301.167,239.167 299.833,240.833 298.5,242.5C 298.5,242.167 298.5,241.833 298.5,241.5C 298.5,240.167 298.5,238.833 298.5,237.5C 298.557,236.391 298.89,235.391 299.5,234.5 Z"/></g>
<g><path style="opacity:0.969" fill="#aeadac" d="M 488.5,234.5 C 490.806,235.375 491.473,236.708 490.5,238.5C 489.391,238.443 488.391,238.11 487.5,237.5C 486.833,237.5 486.5,237.167 486.5,236.5C 486.5,235.167 487.167,234.5 488.5,234.5 Z"/></g>
<g><path style="opacity:0.953" fill="#d9d8d6" d="M 337.5,235.5 C 338.338,235.842 338.672,236.508 338.5,237.5C 338.738,239.404 339.738,240.738 341.5,241.5C 341.66,243.153 342.326,244.486 343.5,245.5C 344.026,247.23 345.026,248.564 346.5,249.5C 346.728,251.355 346.061,252.188 344.5,252C 343.397,249.243 341.731,247.076 339.5,245.5C 338.662,245.158 338.328,244.492 338.5,243.5C 337.63,240.622 336.297,237.955 334.5,235.5C 335.425,234.438 336.425,234.438 337.5,235.5 Z"/></g>
<g><path style="opacity:0.107" fill="#232122" d="M 389.5,234.5 C 390.568,233.566 391.901,233.232 393.5,233.5C 393.334,238.511 393.501,243.511 394,248.5C 396.381,249.435 398.881,249.768 401.5,249.5C 401.714,251.144 401.38,252.644 400.5,254C 396.642,254.81 392.976,254.643 389.5,253.5C 389.833,253.5 390.167,253.5 390.5,253.5C 393.5,253.5 396.5,253.5 399.5,253.5C 399.5,252.5 399.5,251.5 399.5,250.5C 397.167,250.5 394.833,250.5 392.5,250.5C 393.113,244.729 392.446,239.396 390.5,234.5C 390.167,234.5 389.833,234.5 389.5,234.5 Z"/></g>
<g><path style="opacity:0.078" fill="#1b1c16" d="M 487.5,237.5 C 488.391,238.11 489.391,238.443 490.5,238.5C 489.053,239.885 488.053,239.552 487.5,237.5 Z"/></g>
<g><path style="opacity:0.247" fill="#4b494a" d="M 260.5,234.5 C 263.517,236.615 264.184,239.282 262.5,242.5C 262.713,239.549 262.046,236.882 260.5,234.5 Z"/></g>
<g><path style="opacity:0.071" fill="#3d3a39" d="M 337.5,235.5 C 336.425,234.438 335.425,234.438 334.5,235.5C 336.297,237.955 337.63,240.622 338.5,243.5C 337.518,246.962 337.185,250.629 337.5,254.5C 336.167,254.5 334.833,254.5 333.5,254.5C 333.728,247.34 333.728,240.34 333.5,233.5C 335.483,233.157 336.817,233.824 337.5,235.5 Z"/></g>
<g><path style="opacity:0.42" fill="#4e4d4c" d="M 338.5,237.5 C 340.262,238.262 341.262,239.596 341.5,241.5C 339.738,240.738 338.738,239.404 338.5,237.5 Z"/></g>
<g><path style="opacity:0.937" fill="#dad9d8" d="M 424.5,235.5 C 425.62,239.1 426.787,242.767 428,246.5C 428.977,247.774 429.811,247.774 430.5,246.5C 430.796,244.597 431.463,242.93 432.5,241.5C 433.461,243.265 433.795,245.265 433.5,247.5C 433.672,248.492 433.338,249.158 432.5,249.5C 431.521,250.765 430.521,252.099 429.5,253.5C 427.319,247.805 424.652,242.471 421.5,237.5C 421.402,234.752 422.402,234.086 424.5,235.5 Z"/></g>
<g><path style="opacity:0.106" fill="#393838" d="M 424.5,235.5 C 426.773,239.049 428.773,242.716 430.5,246.5C 429.811,247.774 428.977,247.774 428,246.5C 426.787,242.767 425.62,239.1 424.5,235.5 Z"/></g>
<g><path style="opacity:0.021" fill="#000000" d="M 94.5,242.5 C 144.664,241.501 194.997,241.168 245.5,241.5C 245.843,243.483 245.176,244.817 243.5,245.5C 243.5,245.167 243.5,244.833 243.5,244.5C 244.043,244.44 244.376,244.107 244.5,243.5C 194.838,242.5 145.171,242.167 95.5,242.5C 95.1667,242.5 94.8333,242.5 94.5,242.5 Z"/></g>
<g><path style="opacity:0.941" fill="#777576" d="M 295.5,237.5 C 296.268,238.263 296.768,239.263 297,240.5C 297.232,239.263 297.732,238.263 298.5,237.5C 298.5,238.833 298.5,240.167 298.5,241.5C 297.662,241.842 297.328,242.508 297.5,243.5C 296.778,243.082 296.278,242.416 296,241.5C 295.51,242.793 295.343,244.127 295.5,245.5C 295.167,245.5 294.833,245.5 294.5,245.5C 293.637,243.579 292.971,241.579 292.5,239.5C 293.496,239.414 294.329,239.748 295,240.5C 295.483,239.552 295.649,238.552 295.5,237.5 Z"/></g>
<g><path style="opacity:0.935" fill="#d6d4d3" d="M 322.5,235.5 C 322.833,235.5 323.167,235.5 323.5,235.5C 324.833,240.833 324.833,246.167 323.5,251.5C 323.027,252.906 322.027,253.573 320.5,253.5C 319.314,252.295 319.314,250.961 320.5,249.5C 320.5,248.833 320.833,248.5 321.5,248.5C 322.997,244.288 322.664,240.121 320.5,236C 321.094,235.536 321.761,235.369 322.5,235.5 Z"/></g>
<g><path style="opacity:0.022" fill="#151414" d="M 483.5,240.5 C 486.216,240.386 488.216,241.386 489.5,243.5C 487.25,242.87 485.25,241.87 483.5,240.5 Z"/></g>
<g><path style="opacity:0.51" fill="#a2a19f" d="M 95.5,242.5 C 145.171,242.167 194.838,242.5 244.5,243.5C 244.376,244.107 244.043,244.44 243.5,244.5C 193.822,245.162 144.489,244.495 95.5,242.5 Z"/></g>
<g><path style="opacity:0.153" fill="#2b2828" d="M 323.5,235.5 C 324.117,235.611 324.617,235.944 325,236.5C 325.667,241.167 325.667,245.833 325,250.5C 324.617,251.056 324.117,251.389 323.5,251.5C 324.833,246.167 324.833,240.833 323.5,235.5 Z"/></g>
<g><path style="opacity:0.492" fill="#595758" d="M 389.5,234.5 C 389.833,234.5 390.167,234.5 390.5,234.5C 390.5,240.833 390.5,247.167 390.5,253.5C 390.167,253.5 389.833,253.5 389.5,253.5C 388.378,247.547 388.378,241.214 389.5,234.5 Z"/></g>
<g><path style="opacity:0.29" fill="#413f3e" d="M 470.5,232.5 C 471.812,233.145 472.812,234.145 473.5,235.5C 471.851,236.988 469.851,237.988 467.5,238.5C 467.621,243.652 467.621,248.985 467.5,254.5C 466.167,254.5 464.833,254.5 463.5,254.5C 463.231,248.889 463.231,243.389 463.5,238C 461.866,237.506 460.199,237.34 458.5,237.5C 458.5,236.167 458.5,234.833 458.5,233.5C 462.702,233.817 466.702,233.483 470.5,232.5 Z"/></g>
<g><path style="opacity:0.949" fill="#e9e7e5" d="M 459.5,234.5 C 463.555,234.176 467.555,234.509 471.5,235.5C 469.955,236.452 468.288,236.785 466.5,236.5C 465.833,259.167 465.167,259.167 464.5,236.5C 462.219,236.923 460.552,236.256 459.5,234.5 Z"/></g>
<g><path style="opacity:0.49" fill="#494548" d="M 480.5,236.5 C 480.394,239.615 481.394,242.281 483.5,244.5C 481.983,244.489 480.816,243.823 480,242.5C 479.211,240.288 479.378,238.288 480.5,236.5 Z"/></g>
<g><path style="opacity:0.984" fill="#cbcaca" d="M 484.5,237.5 C 483.596,238.209 483.263,239.209 483.5,240.5C 485.25,241.87 487.25,242.87 489.5,243.5C 491.168,245.479 491.834,247.812 491.5,250.5C 491.167,251.5 490.5,252.167 489.5,252.5C 488.448,252.649 487.448,252.483 486.5,252C 487.381,251.292 488.047,250.458 488.5,249.5C 488.649,248.448 488.483,247.448 488,246.5C 486.378,245.901 484.878,245.234 483.5,244.5C 481.394,242.281 480.394,239.615 480.5,236.5C 482.017,236.489 483.184,235.823 484,234.5C 484.483,235.448 484.649,236.448 484.5,237.5 Z"/></g>
<g><path style="opacity:0.366" fill="#4f4d4c" d="M 258.5,234.5 C 257.624,234.369 256.957,234.702 256.5,235.5C 257.243,236.182 257.909,236.849 258.5,237.5C 259.586,237.62 260.253,238.287 260.5,239.5C 260.078,241.663 258.744,242.997 256.5,243.5C 260.2,244.401 261.2,246.401 259.5,249.5C 258.942,250.79 257.942,251.623 256.5,252C 258.134,252.494 259.801,252.66 261.5,252.5C 259.786,253.738 257.786,254.405 255.5,254.5C 255.167,250.5 254.833,250.5 254.5,254.5C 253.209,254.737 252.209,254.404 251.5,253.5C 250.509,247.021 250.176,240.354 250.5,233.5C 253.382,234.28 256.048,234.613 258.5,234.5 Z M 258.5,237.5 C 260,239.509 259.5,240.842 257,241.5C 254.955,240.362 254.288,238.695 255,236.5C 256.011,237.337 257.178,237.67 258.5,237.5 Z M 259.5,249.5 C 258.178,249.33 257.011,249.663 256,250.5C 253.182,243.997 254.182,242.663 259,246.5C 259.483,247.448 259.649,248.448 259.5,249.5 Z"/></g>
<g><path style="opacity:0.944" fill="#e3dfdf" d="M 251.5,253.5 C 251.17,247.132 251.504,240.798 252.5,234.5C 252.833,237.667 253.167,240.833 253.5,244C 253.485,247.576 252.818,250.742 251.5,253.5 Z"/></g>
<g><path style="opacity:0.99" fill="#dcdbd9" d="M 279.5,245.5 C 278.798,246.116 277.798,246.116 276.5,245.5C 275.549,246.919 275.216,248.585 275.5,250.5C 277.369,251.165 279.369,251.831 281.5,252.5C 278.572,253.484 275.572,253.817 272.5,253.5C 272.5,247.167 272.5,240.833 272.5,234.5C 275.572,234.183 278.572,234.516 281.5,235.5C 279.604,236.466 277.604,236.799 275.5,236.5C 275.5,238.5 275.5,240.5 275.5,242.5C 276.833,242.5 278.167,242.5 279.5,242.5C 279.5,243.5 279.5,244.5 279.5,245.5 Z"/></g>
<g><path style="opacity:0.191" fill="#363433" d="M 366.5,237.5 C 367.648,241.981 367.815,246.648 367,251.5C 366.329,252.252 365.496,252.586 364.5,252.5C 366.318,247.729 366.985,242.729 366.5,237.5 Z"/></g>
<g><path style="opacity:0.38" fill="#646361" d="M 94.5,242.5 C 94.8333,242.5 95.1667,242.5 95.5,242.5C 144.489,244.495 193.822,245.162 243.5,244.5C 243.5,244.833 243.5,245.167 243.5,245.5C 193.833,245.5 144.167,245.5 94.5,245.5C 94.5,244.5 94.5,243.5 94.5,242.5 Z"/></g>
<g><path style="opacity:0.447" fill="#5d5c5c" d="M 312.5,236.5 C 312.5,241.5 312.5,246.5 312.5,251.5C 311.804,247.769 311.138,243.935 310.5,240C 311.085,238.698 311.751,237.531 312.5,236.5 Z"/></g>
<g><path style="opacity:0.394" fill="#6b6b69" d="M 322.5,235.5 C 321.761,235.369 321.094,235.536 320.5,236C 322.664,240.121 322.997,244.288 321.5,248.5C 322.077,243.916 321.077,239.749 318.5,236C 319.579,232.948 320.912,232.782 322.5,235.5 Z"/></g>
<g><path style="opacity:0.362" fill="#5f5d5b" d="M 503.5,242.5 C 502.022,242.238 500.689,242.571 499.5,243.5C 548.83,244.667 598.163,244.833 647.5,244C 646.584,243.722 645.918,243.222 645.5,242.5C 648.33,240.965 649.663,241.965 649.5,245.5C 599.167,245.5 548.833,245.5 498.5,245.5C 498.5,244.167 498.5,242.833 498.5,241.5C 500.415,241.216 502.081,241.549 503.5,242.5 Z"/></g>
<g><path style="opacity:0.497" fill="#868584" d="M 645.5,242.5 C 645.918,243.222 646.584,243.722 647.5,244C 598.163,244.833 548.83,244.667 499.5,243.5C 500.689,242.571 502.022,242.238 503.5,242.5C 550.751,242.374 598.084,242.374 645.5,242.5 Z"/></g>
<g><path style="opacity:0.41" fill="#5a5958" d="M 408.5,233.5 C 410.199,233.34 411.866,233.506 413.5,234C 412.521,240.744 412.188,247.578 412.5,254.5C 411.167,254.5 409.833,254.5 408.5,254.5C 408.5,247.5 408.5,240.5 408.5,233.5 Z"/></g>
<g><path style="opacity:0.855" fill="#e0dfdd" d="M 409.5,234.5 C 410.818,237.258 411.485,240.424 411.5,244C 411.167,247.167 410.833,250.333 410.5,253.5C 409.504,247.202 409.17,240.868 409.5,234.5 Z"/></g>
<g><path style="opacity:1" fill="#f4f0f0" d="M 334.5,240.5 C 336.033,242.634 336.7,245.134 336.5,248C 336.167,249.833 335.833,251.667 335.5,253.5C 334.508,249.217 334.174,244.884 334.5,240.5 Z"/></g>
<g><path style="opacity:0.02" fill="#1b1817" d="M 346.5,234.5 C 347.751,239.369 347.751,244.369 346.5,249.5C 345.026,248.564 344.026,247.23 343.5,245.5C 343.833,245.5 344.167,245.5 344.5,245.5C 346.414,242.316 347.08,238.649 346.5,234.5 Z"/></g>
<g><path style="opacity:0.192" fill="#4a4949" d="M 449.5,232.5 C 450.473,232.987 451.473,233.487 452.5,234C 451.521,240.744 451.188,247.578 451.5,254.5C 450.167,254.5 448.833,254.5 447.5,254.5C 446.924,246.889 447.59,239.556 449.5,232.5 Z"/></g>
<g><path style="opacity:0.931" fill="#efeeee" d="M 448.5,234.5 C 449.818,237.258 450.485,240.424 450.5,244C 450.167,247.167 449.833,250.333 449.5,253.5C 448.504,247.202 448.17,240.868 448.5,234.5 Z"/></g>
<g><path style="opacity:0.706" fill="#c5c3c4" d="M 297.5,243.5 C 298.207,246.786 298.54,250.119 298.5,253.5C 297.5,253.5 296.5,253.5 295.5,253.5C 295.5,250.833 295.5,248.167 295.5,245.5C 295.343,244.127 295.51,242.793 296,241.5C 296.278,242.416 296.778,243.082 297.5,243.5 Z"/></g>
<g><path style="opacity:0.969" fill="#dcdadb" d="M 390.5,234.5 C 392.446,239.396 393.113,244.729 392.5,250.5C 394.833,250.5 397.167,250.5 399.5,250.5C 399.5,251.5 399.5,252.5 399.5,253.5C 396.5,253.5 393.5,253.5 390.5,253.5C 390.5,247.167 390.5,240.833 390.5,234.5 Z"/></g>
<g><path style="opacity:0.569" fill="#9e9d9c" d="M 438.5,253.5 C 437.5,254.833 436.5,254.833 435.5,253.5C 435.5,247.167 435.5,240.833 435.5,234.5C 436.5,234.5 437.5,234.5 438.5,234.5C 438.5,240.833 438.5,247.167 438.5,253.5 Z"/></g>
<g><path style="opacity:0.239" fill="#2f2a2b" d="M 489.5,243.5 C 490.496,243.414 491.329,243.748 492,244.5C 492.789,246.712 492.622,248.712 491.5,250.5C 491.834,247.812 491.168,245.479 489.5,243.5 Z"/></g>
<g><path style="opacity:0.106" fill="#272626" d="M 294.5,245.5 C 294.833,245.5 295.167,245.5 295.5,245.5C 295.5,248.167 295.5,250.833 295.5,253.5C 296.5,253.5 297.5,253.5 298.5,253.5C 297.432,254.434 296.099,254.768 294.5,254.5C 294.5,251.5 294.5,248.5 294.5,245.5 Z"/></g>
<g><path style="opacity:0.063" fill="#201f1f" d="M 302.5,237.5 C 302.411,240.784 301.078,243.284 298.5,245C 299.817,247.937 299.817,250.77 298.5,253.5C 298.54,250.119 298.207,246.786 297.5,243.5C 298.167,243.5 298.5,243.167 298.5,242.5C 299.833,240.833 301.167,239.167 302.5,237.5 Z"/></g>
<g><path style="opacity:0.902" fill="#b4b2b3" d="M 315.5,249.5 C 316.562,250.575 316.562,251.575 315.5,252.5C 314.583,251.873 313.583,251.539 312.5,251.5C 312.5,246.5 312.5,241.5 312.5,236.5C 314.139,233.771 315.805,233.438 317.5,235.5C 315.752,239.993 315.085,244.66 315.5,249.5 Z"/></g>
<g><path style="opacity:0.412" fill="#403f3c" d="M 421.5,237.5 C 424.652,242.471 427.319,247.805 429.5,253.5C 430.521,252.099 431.521,250.765 432.5,249.5C 432.817,253.172 431.151,254.838 427.5,254.5C 425.283,244.116 424.283,244.116 424.5,254.5C 423.209,254.737 422.209,254.404 421.5,253.5C 420.413,248.021 420.413,242.688 421.5,237.5 Z"/></g>
<g><path style="opacity:0.137" fill="#3c3b3a" d="M 262.5,242.5 C 263.657,245.307 263.657,247.974 262.5,250.5C 262.014,247.618 262.014,244.952 262.5,242.5 Z"/></g>
<g><path style="opacity:0.039" fill="#171716" d="M 276.5,245.5 C 276.5,246.833 276.5,248.167 276.5,249.5C 278.735,249.205 280.735,249.539 282.5,250.5C 280.167,250.5 277.833,250.5 275.5,250.5C 275.216,248.585 275.549,246.919 276.5,245.5 Z"/></g>
<g><path style="opacity:0.81" fill="#d4d4cf" d="M 421.5,253.5 C 421.335,249.818 421.501,246.152 422,242.5C 424.093,246.523 423.927,250.19 421.5,253.5 Z"/></g>
<g><path style="opacity:1" fill="#acaaab" d="M 480.5,248.5 C 482.078,249.066 483.412,250.066 484.5,251.5C 483.675,252.386 482.675,252.719 481.5,252.5C 479.481,251.462 479.147,250.128 480.5,248.5 Z"/></g>
<g><path style="opacity:1" fill="#d9d8d6" d="M 366.5,237.5 C 366.985,242.729 366.318,247.729 364.5,252.5C 359.468,252.668 359.301,251.668 364,249.5C 364.808,245.973 364.641,242.64 363.5,239.5C 363.027,238.094 362.027,237.427 360.5,237.5C 360.5,236.5 360.5,235.5 360.5,234.5C 362.95,233.904 364.95,234.904 366.5,237.5 Z"/></g>
<g><path style="opacity:0.157" fill="#3d3c3a" d="M 360.5,234.5 C 360.5,235.5 360.5,236.5 360.5,237.5C 359.353,241.646 359.186,245.98 360,250.5C 361,249.833 362,249.167 363,248.5C 363.229,245.265 363.396,242.265 363.5,239.5C 364.641,242.64 364.808,245.973 364,249.5C 359.301,251.668 359.468,252.668 364.5,252.5C 361.877,254.265 358.877,254.932 355.5,254.5C 355.5,247.5 355.5,240.5 355.5,233.5C 357.292,233.366 358.958,233.699 360.5,234.5 Z"/></g>
<g><path style="opacity:0.869" fill="#dddad8" d="M 356.5,234.5 C 357.818,237.258 358.485,240.424 358.5,244C 358.167,247.167 357.833,250.333 357.5,253.5C 356.504,247.202 356.17,240.868 356.5,234.5 Z"/></g>
<g><path style="opacity:0.118" fill="#322e31" d="M 480.5,248.5 C 480.735,247.903 481.235,247.57 482,247.5C 483.863,249.881 486.029,250.548 488.5,249.5C 488.047,250.458 487.381,251.292 486.5,252C 487.448,252.483 488.448,252.649 489.5,252.5C 487.782,253.224 485.948,253.891 484,254.5C 483.005,253.934 482.172,253.267 481.5,252.5C 482.675,252.719 483.675,252.386 484.5,251.5C 483.412,250.066 482.078,249.066 480.5,248.5 Z"/></g>
<g><path style="opacity:0.384" fill="#424042" d="M 315.5,249.5 C 317.167,249.5 318.833,249.5 320.5,249.5C 319.314,250.961 319.314,252.295 320.5,253.5C 319.375,254.014 318.209,254.347 317,254.5C 315.122,253.947 313.622,252.947 312.5,251.5C 313.583,251.539 314.583,251.873 315.5,252.5C 316.562,251.575 316.562,250.575 315.5,249.5 Z"/></g>
<g><path style="opacity:0.059" fill="#2e2d2c" d="M 339.5,245.5 C 341.731,247.076 343.397,249.243 344.5,252C 346.061,252.188 346.728,251.355 346.5,249.5C 348.148,254.023 346.981,255.023 343,252.5C 341.82,250.14 340.653,247.807 339.5,245.5 Z"/></g>
<g><path style="opacity:0.159" fill="#393837" d="M 279.5,245.5 C 279.5,244.5 279.5,243.5 279.5,242.5C 278.167,242.5 276.833,242.5 275.5,242.5C 275.5,240.5 275.5,238.5 275.5,236.5C 277.604,236.799 279.604,236.466 281.5,235.5C 278.572,234.516 275.572,234.183 272.5,234.5C 272.5,240.833 272.5,247.167 272.5,253.5C 275.572,253.817 278.572,253.484 281.5,252.5C 279.369,251.831 277.369,251.165 275.5,250.5C 277.833,250.5 280.167,250.5 282.5,250.5C 283.791,251.542 283.791,252.708 282.5,254C 278.848,254.499 275.182,254.665 271.5,254.5C 271.5,247.5 271.5,240.5 271.5,233.5C 275.5,233.5 279.5,233.5 283.5,233.5C 283.5,234.833 283.5,236.167 283.5,237.5C 281.076,237.192 278.743,237.526 276.5,238.5C 277.641,239.425 277.641,240.259 276.5,241C 277.793,241.49 279.127,241.657 280.5,241.5C 280.768,243.099 280.434,244.432 279.5,245.5 Z"/></g>
</svg>
